<svg xmlns="http://www.w3.org/2000/svg" height="40" viewBox="0 96 960 960" width="40"><path d="M370.205 785.539 480 700.974l109.795 84.565-41.487-138.872 102-70.667H524l-44-140.565L436 576H309.692l102 70.667-41.487 138.872ZM480 766.769 339.487 874.333q-8.231 5.231-16.987 4.488-8.757-.744-14.987-4.923-6.231-3.667-9.475-11.347-3.243-7.679-.371-16.782l53.154-175.82-134.77-99.334q-8.564-4.864-11.372-12.509-2.807-7.645-.013-16.388 2.641-8.077 8.69-12.898 6.048-4.82 16.105-4.82h170.774l54.816-182.129q1.998-8.674 9.153-13.696 7.155-5.021 15.796-5.021 8.641 0 15.796 5.021 7.155 5.022 9.819 13.696L559.765 524h170.774q10.057 0 16.105 4.82 6.049 4.821 9.356 12.898 2.128 8.743-.679 16.388-2.808 7.645-10.193 12.509l-135.949 99.334 53.154 175.82q2.872 9.103-.371 16.782-3.244 7.68-9.475 11.347-6.23 4.179-14.987 4.923-8.756.743-16.474-4.488L480 766.769Zm0-156.359Z"/></svg>